<svg xmlns="http://www.w3.org/2000/svg" width="960" height="600" viewBox="0 0 960 600" role="img" aria-label="Ivris AR interior visualization thumbnail">
  <defs>
    <linearGradient id="bg" x1="0" y1="0" x2="1" y2="1">
      <stop offset="0" stop-color="#07100F"/>
      <stop offset=".62" stop-color="#111A18"/>
      <stop offset="1" stop-color="#242016"/>
    </linearGradient>
    <pattern id="grid" width="48" height="48" patternUnits="userSpaceOnUse">
      <path d="M48 0H0V48" fill="none" stroke="#FFFFFF" stroke-opacity=".08"/>
    </pattern>
  </defs>
  <rect width="960" height="600" fill="url(#bg)"/>
  <rect width="960" height="600" fill="url(#grid)"/>
  <path d="M180 430V190l220-88 240 84v244z" fill="#101314" stroke="#A9FBD7" stroke-opacity=".32" stroke-width="3"/>
  <path d="M400 102v328M180 190l220 92 240-96" fill="none" stroke="#A9FBD7" stroke-opacity=".28" stroke-width="5"/>
  <rect x="235" y="332" width="210" height="72" rx="12" fill="#A9FBD7" fill-opacity=".72"/>
  <rect x="505" y="286" width="92" height="146" rx="10" fill="#6EE7F9" fill-opacity=".24" stroke="#6EE7F9" stroke-opacity=".58"/>
  <rect x="280" y="232" width="120" height="70" rx="8" fill="#FFFFFF" fill-opacity=".07" stroke="#FFFFFF" stroke-opacity=".18"/>
  <circle cx="704" cy="194" r="54" fill="#F8D36A" fill-opacity=".16" stroke="#F8D36A" stroke-opacity=".55"/>
  <path d="M704 134v120M644 194h120" stroke="#F8D36A" stroke-width="9" stroke-linecap="round" opacity=".7"/>
  <path d="M646 430h120M646 392h170M646 354h138" stroke="#A9FBD7" stroke-width="13" stroke-linecap="round" opacity=".46"/>
</svg>
