<svg xmlns="http://www.w3.org/2000/svg" width="960" height="600" viewBox="0 0 960 600" role="img" aria-label="PLC digital twin simulation thumbnail">
  <defs>
    <linearGradient id="bg" x1="0" y1="0" x2="1" y2="1">
      <stop offset="0" stop-color="#07100E"/>
      <stop offset="1" stop-color="#1B241F"/>
    </linearGradient>
    <pattern id="grid" width="40" height="40" patternUnits="userSpaceOnUse">
      <path d="M40 0H0V40" fill="none" stroke="#FFFFFF" stroke-opacity=".08"/>
    </pattern>
  </defs>
  <rect width="960" height="600" fill="url(#bg)"/>
  <rect width="960" height="600" fill="url(#grid)"/>
  <rect x="80" y="80" width="320" height="390" rx="14" fill="#101314" stroke="#A9FBD7" stroke-opacity=".35"/>
  <rect x="126" y="132" width="190" height="28" rx="5" fill="#A9FBD7" fill-opacity=".28"/>
  <g stroke="#A9FBD7" stroke-width="7" stroke-linecap="round" fill="none">
    <path d="M130 215h80v-34h95"/>
    <path d="M130 280h130v-34h60"/>
    <path d="M130 345h95v-34h110"/>
  </g>
  <g fill="#F8D36A">
    <circle cx="130" cy="215" r="12"/>
    <circle cx="130" cy="280" r="12"/>
    <circle cx="130" cy="345" r="12"/>
  </g>
  <rect x="500" y="150" width="230" height="260" rx="18" fill="#141918" stroke="#FFFFFF" stroke-opacity=".18"/>
  <rect x="575" y="90" width="80" height="80" rx="12" fill="#6EE7F9" fill-opacity=".18" stroke="#6EE7F9" stroke-opacity=".6"/>
  <path d="M615 170v170" stroke="#A9FBD7" stroke-width="12" stroke-linecap="round"/>
  <rect x="550" y="340" width="130" height="54" rx="7" fill="#A9FBD7"/>
  <path d="M400 280h100" stroke="#F8D36A" stroke-width="8" stroke-dasharray="12 14" stroke-linecap="round"/>
  <circle cx="765" cy="170" r="22" fill="#A9FBD7"/>
  <circle cx="765" cy="250" r="22" fill="#6EE7F9"/>
  <circle cx="765" cy="330" r="22" fill="#F8D36A"/>
</svg>
