<svg xmlns="http://www.w3.org/2000/svg" width="960" height="600" viewBox="0 0 960 600" role="img" aria-label="VR booth experience thumbnail">
  <defs>
    <linearGradient id="bg" x1="0" y1="0" x2="1" y2="1">
      <stop offset="0" stop-color="#0C0E10"/>
      <stop offset=".7" stop-color="#14201E"/>
      <stop offset="1" stop-color="#2A2515"/>
    </linearGradient>
  </defs>
  <rect width="960" height="600" fill="url(#bg)"/>
  <path d="M88 456c180-96 316-72 480-10 92 35 172 39 286-26v180H88z" fill="#6EE7F9" fill-opacity=".16"/>
  <path d="M92 438c144-72 234 42 370-22 122-58 216-18 342-66" fill="none" stroke="#6EE7F9" stroke-width="10" stroke-linecap="round" opacity=".75"/>
  <rect x="300" y="170" width="360" height="160" rx="28" fill="#101314" stroke="#FFFFFF" stroke-opacity=".24"/>
  <rect x="346" y="218" width="112" height="70" rx="18" fill="#050606" stroke="#A9FBD7" stroke-opacity=".48"/>
  <rect x="502" y="218" width="112" height="70" rx="18" fill="#050606" stroke="#A9FBD7" stroke-opacity=".48"/>
  <rect x="414" y="148" width="132" height="38" rx="19" fill="#A9FBD7" fill-opacity=".22"/>
  <path d="M244 380l116-84M716 380l-116-84" stroke="#F8D36A" stroke-width="12" stroke-linecap="round"/>
  <circle cx="244" cy="380" r="28" fill="#F8D36A" fill-opacity=".75"/>
  <circle cx="716" cy="380" r="28" fill="#F8D36A" fill-opacity=".75"/>
  <rect x="116" y="82" width="202" height="48" rx="10" fill="#FFFFFF" fill-opacity=".07"/>
  <rect x="142" y="100" width="118" height="13" rx="4" fill="#A9FBD7" fill-opacity=".5"/>
</svg>
