<svg xmlns="http://www.w3.org/2000/svg" width="960" height="600" viewBox="0 0 960 600" role="img" aria-label="Meta Quest VR training suite thumbnail">
  <defs>
    <linearGradient id="bg" x1="0" y1="0" x2="1" y2="1">
      <stop offset="0" stop-color="#080B0C"/>
      <stop offset=".55" stop-color="#101918"/>
      <stop offset="1" stop-color="#1E2016"/>
    </linearGradient>
  </defs>
  <rect width="960" height="600" fill="url(#bg)"/>
  <g stroke="#FFFFFF" stroke-opacity=".09">
    <path d="M0 120h960M0 240h960M0 360h960M0 480h960M160 0v600M320 0v600M480 0v600M640 0v600M800 0v600"/>
  </g>
  <rect x="250" y="132" width="460" height="170" rx="30" fill="#101314" stroke="#A9FBD7" stroke-opacity=".34" stroke-width="3"/>
  <rect x="310" y="188" width="132" height="78" rx="18" fill="#050606" stroke="#6EE7F9" stroke-opacity=".5"/>
  <rect x="518" y="188" width="132" height="78" rx="18" fill="#050606" stroke="#6EE7F9" stroke-opacity=".5"/>
  <path d="M405 376c55-52 104-52 151 0" fill="none" stroke="#F8D36A" stroke-width="11" stroke-linecap="round"/>
  <path d="M176 430h190M176 472h258M584 430h202M584 472h142" stroke="#A9FBD7" stroke-width="14" stroke-linecap="round" opacity=".5"/>
  <circle cx="482" cy="388" r="64" fill="#6EE7F9" fill-opacity=".12" stroke="#6EE7F9" stroke-opacity=".52"/>
  <path d="M482 350v76M444 388h76" stroke="#6EE7F9" stroke-width="9" stroke-linecap="round"/>
</svg>
