<svg xmlns="http://www.w3.org/2000/svg" width="960" height="600" viewBox="0 0 960 600" role="img" aria-label="WebGL UI systems sandbox thumbnail">
  <defs>
    <linearGradient id="bg" x1="0" y1="0" x2="1" y2="1">
      <stop offset="0" stop-color="#080A0A"/>
      <stop offset=".6" stop-color="#101918"/>
      <stop offset="1" stop-color="#1E1D13"/>
    </linearGradient>
  </defs>
  <rect width="960" height="600" fill="url(#bg)"/>
  <rect x="98" y="78" width="300" height="208" rx="14" fill="#101314" stroke="#A9FBD7" stroke-opacity=".28"/>
  <rect x="132" y="118" width="112" height="18" rx="4" fill="#A9FBD7" fill-opacity=".6"/>
  <rect x="132" y="164" width="220" height="48" rx="8" fill="#FFFFFF" fill-opacity=".07"/>
  <rect x="132" y="228" width="150" height="20" rx="5" fill="#F8D36A" fill-opacity=".48"/>
  <rect x="516" y="100" width="300" height="190" rx="14" fill="#101314" stroke="#FFFFFF" stroke-opacity=".14"/>
  <path d="M552 224h210M552 180h150M552 136h190" stroke="#6EE7F9" stroke-width="14" stroke-linecap="round" opacity=".48"/>
  <rect x="330" y="370" width="300" height="148" rx="14" fill="#101314" stroke="#F8D36A" stroke-opacity=".24"/>
  <path d="M382 458h286" stroke="#A9FBD7" stroke-width="9" stroke-dasharray="14 15" stroke-linecap="round"/>
  <path d="M398 286l132 84M642 290l-92 80M398 182h118" stroke="#A9FBD7" stroke-width="8" stroke-linecap="round" opacity=".55"/>
  <circle cx="398" cy="286" r="14" fill="#A9FBD7"/>
  <circle cx="642" cy="290" r="14" fill="#6EE7F9"/>
  <circle cx="530" cy="370" r="14" fill="#F8D36A"/>
</svg>
